<svg width="115" height="14" viewBox="0 0 115 14" fill="none" xmlns="http://www.w3.org/2000/svg">
<path d="M2.11426 5.13477V11H0.138672V3.60352H1.99121L2.11426 5.13477ZM1.84082 7.04199H1.29395C1.29395 6.52702 1.35547 6.05306 1.47852 5.62012C1.60612 5.18262 1.79069 4.80436 2.03223 4.48535C2.27832 4.16178 2.58138 3.91113 2.94141 3.7334C3.30143 3.55566 3.71842 3.4668 4.19238 3.4668C4.52051 3.4668 4.82129 3.51693 5.09473 3.61719C5.36816 3.71289 5.60286 3.86556 5.79883 4.0752C5.99935 4.28027 6.1543 4.54915 6.26367 4.88184C6.37305 5.20996 6.42773 5.60417 6.42773 6.06445V11H4.45898V6.2832C4.45898 5.94596 4.41341 5.6862 4.32227 5.50391C4.23112 5.32161 4.10124 5.19401 3.93262 5.12109C3.76855 5.04818 3.57031 5.01172 3.33789 5.01172C3.08268 5.01172 2.85938 5.06413 2.66797 5.16895C2.48112 5.27376 2.32617 5.4196 2.20312 5.60645C2.08008 5.78874 1.98893 6.00293 1.92969 6.24902C1.87044 6.49512 1.84082 6.75944 1.84082 7.04199ZM6.24316 6.81641L5.53906 6.90527C5.53906 6.4222 5.59831 5.97331 5.7168 5.55859C5.83984 5.14388 6.01986 4.7793 6.25684 4.46484C6.49837 4.15039 6.79688 3.90658 7.15234 3.7334C7.50781 3.55566 7.91797 3.4668 8.38281 3.4668C8.73828 3.4668 9.06185 3.51921 9.35352 3.62402C9.64518 3.72428 9.89355 3.88607 10.0986 4.10938C10.3083 4.32812 10.4678 4.61523 10.5771 4.9707C10.6911 5.32617 10.748 5.76139 10.748 6.27637V11H8.77246V6.27637C8.77246 5.93457 8.72689 5.6748 8.63574 5.49707C8.54915 5.31478 8.42155 5.18945 8.25293 5.12109C8.08887 5.04818 7.8929 5.01172 7.66504 5.01172C7.42806 5.01172 7.2207 5.05957 7.04297 5.15527C6.86523 5.24642 6.71712 5.37402 6.59863 5.53809C6.48014 5.70215 6.39128 5.89355 6.33203 6.1123C6.27279 6.3265 6.24316 6.5612 6.24316 6.81641ZM16.2646 9.33203V6.03711C16.2646 5.80013 16.2259 5.59733 16.1484 5.42871C16.071 5.25553 15.9502 5.12109 15.7861 5.02539C15.6266 4.92969 15.4193 4.88184 15.1641 4.88184C14.9453 4.88184 14.7562 4.92057 14.5967 4.99805C14.4372 5.07096 14.3141 5.17806 14.2275 5.31934C14.141 5.45605 14.0977 5.61784 14.0977 5.80469H12.1289C12.1289 5.49023 12.2018 5.19173 12.3477 4.90918C12.4935 4.62663 12.7054 4.37826 12.9834 4.16406C13.2614 3.94531 13.5918 3.77441 13.9746 3.65137C14.362 3.52832 14.7949 3.4668 15.2734 3.4668C15.8477 3.4668 16.3581 3.5625 16.8047 3.75391C17.2513 3.94531 17.6022 4.23242 17.8574 4.61523C18.1172 4.99805 18.2471 5.47656 18.2471 6.05078V9.21582C18.2471 9.62142 18.2721 9.9541 18.3223 10.2139C18.3724 10.4691 18.4453 10.6924 18.541 10.8838V11H16.5518C16.4561 10.7995 16.3831 10.5488 16.333 10.248C16.2874 9.94271 16.2646 9.63737 16.2646 9.33203ZM16.5244 6.49512L16.5381 7.60938H15.4375C15.1777 7.60938 14.9521 7.639 14.7607 7.69824C14.5693 7.75749 14.4121 7.8418 14.2891 7.95117C14.166 8.05599 14.0749 8.17904 14.0156 8.32031C13.9609 8.46159 13.9336 8.61654 13.9336 8.78516C13.9336 8.95378 13.9723 9.10645 14.0498 9.24316C14.1273 9.37533 14.2389 9.48014 14.3848 9.55762C14.5306 9.63053 14.7015 9.66699 14.8975 9.66699C15.1937 9.66699 15.4512 9.60775 15.6699 9.48926C15.8887 9.37077 16.0573 9.22493 16.1758 9.05176C16.2988 8.87858 16.3626 8.71452 16.3672 8.55957L16.8867 9.39355C16.8138 9.5804 16.7135 9.77409 16.5859 9.97461C16.4629 10.1751 16.3057 10.3643 16.1143 10.542C15.9229 10.7152 15.6927 10.8587 15.4238 10.9727C15.1549 11.082 14.8359 11.1367 14.4668 11.1367C13.9974 11.1367 13.5713 11.0433 13.1885 10.8564C12.8102 10.665 12.5094 10.403 12.2861 10.0703C12.0674 9.73307 11.958 9.35026 11.958 8.92188C11.958 8.53451 12.0309 8.19043 12.1768 7.88965C12.3226 7.58887 12.5368 7.33594 12.8193 7.13086C13.1064 6.92122 13.4642 6.764 13.8926 6.65918C14.321 6.5498 14.8177 6.49512 15.3828 6.49512H16.5244ZM21.6924 5.18262V11H19.7236V3.60352H21.5693L21.6924 5.18262ZM21.4053 7.04199H20.8721C20.8721 6.49512 20.9427 6.00293 21.084 5.56543C21.2253 5.12337 21.4235 4.7474 21.6787 4.4375C21.9339 4.12305 22.237 3.88379 22.5879 3.71973C22.9434 3.55111 23.3398 3.4668 23.7773 3.4668C24.1237 3.4668 24.4404 3.51693 24.7275 3.61719C25.0146 3.71745 25.2607 3.87695 25.4658 4.0957C25.6755 4.31445 25.835 4.60384 25.9443 4.96387C26.0583 5.32389 26.1152 5.76367 26.1152 6.2832V11H24.1328V6.27637C24.1328 5.94824 24.0872 5.69303 23.9961 5.51074C23.9049 5.32845 23.7705 5.20085 23.5928 5.12793C23.4196 5.05046 23.2054 5.01172 22.9502 5.01172C22.6859 5.01172 22.4557 5.06413 22.2598 5.16895C22.0684 5.27376 21.9089 5.4196 21.7812 5.60645C21.6582 5.78874 21.5648 6.00293 21.501 6.24902C21.4372 6.49512 21.4053 6.75944 21.4053 7.04199ZM32.2949 3.60352H34.0791V10.7539C34.0791 11.4284 33.9287 12.0003 33.6279 12.4697C33.3317 12.9437 32.917 13.3014 32.3838 13.543C31.8506 13.7891 31.2308 13.9121 30.5244 13.9121C30.2145 13.9121 29.8864 13.8711 29.54 13.7891C29.1982 13.707 28.8701 13.5794 28.5557 13.4062C28.2458 13.2331 27.986 13.0143 27.7764 12.75L28.6445 11.5879C28.8724 11.8522 29.1367 12.0573 29.4375 12.2031C29.7383 12.3535 30.071 12.4287 30.4355 12.4287C30.791 12.4287 31.0918 12.3626 31.3379 12.2305C31.584 12.1029 31.7731 11.9137 31.9053 11.6631C32.0374 11.417 32.1035 11.1185 32.1035 10.7676V5.3125L32.2949 3.60352ZM27.3184 7.39062V7.24707C27.3184 6.68197 27.3867 6.16927 27.5234 5.70898C27.6647 5.24414 27.863 4.84538 28.1182 4.5127C28.3779 4.18001 28.6924 3.92253 29.0615 3.74023C29.4307 3.55794 29.8477 3.4668 30.3125 3.4668C30.8047 3.4668 31.2171 3.55794 31.5498 3.74023C31.8825 3.92253 32.1559 4.18229 32.3701 4.51953C32.5843 4.85221 32.7507 5.24642 32.8691 5.70215C32.9922 6.15332 33.0879 6.64779 33.1562 7.18555V7.5C33.0879 8.01497 32.9854 8.49349 32.8486 8.93555C32.7119 9.3776 32.5319 9.76497 32.3086 10.0977C32.0853 10.4258 31.8073 10.681 31.4746 10.8633C31.1465 11.0456 30.7546 11.1367 30.2988 11.1367C29.8431 11.1367 29.4307 11.0433 29.0615 10.8564C28.6969 10.6696 28.3848 10.4076 28.125 10.0703C27.8652 9.73307 27.6647 9.33659 27.5234 8.88086C27.3867 8.42513 27.3184 7.92839 27.3184 7.39062ZM29.2871 7.24707V7.39062C29.2871 7.69596 29.3167 7.98079 29.376 8.24512C29.4352 8.50944 29.5264 8.74414 29.6494 8.94922C29.777 9.14974 29.9342 9.30697 30.1211 9.4209C30.3125 9.53027 30.5381 9.58496 30.7979 9.58496C31.1579 9.58496 31.4518 9.50977 31.6797 9.35938C31.9076 9.20443 32.0785 8.99251 32.1924 8.72363C32.3063 8.45475 32.3724 8.14486 32.3906 7.79395V6.89844C32.3815 6.61133 32.3428 6.35384 32.2744 6.12598C32.2061 5.89355 32.1104 5.69531 31.9873 5.53125C31.8643 5.36719 31.7048 5.23958 31.5088 5.14844C31.3128 5.05729 31.0804 5.01172 30.8115 5.01172C30.5518 5.01172 30.3262 5.07096 30.1348 5.18945C29.9479 5.30339 29.7907 5.46061 29.6631 5.66113C29.54 5.86165 29.4466 6.09863 29.3828 6.37207C29.319 6.64095 29.2871 6.93262 29.2871 7.24707ZM38.666 9.59863C38.9076 9.59863 39.1217 9.55306 39.3086 9.46191C39.4954 9.36621 39.6413 9.23405 39.7461 9.06543C39.8555 8.89225 39.9124 8.68945 39.917 8.45703H41.7695C41.765 8.97656 41.626 9.43913 41.3525 9.84473C41.0791 10.2458 40.7122 10.5625 40.252 10.7949C39.7917 11.0228 39.2767 11.1367 38.707 11.1367C38.1328 11.1367 37.6315 11.041 37.2031 10.8496C36.7793 10.6582 36.4261 10.3939 36.1436 10.0566C35.861 9.71484 35.6491 9.31836 35.5078 8.86719C35.3665 8.41146 35.2959 7.92383 35.2959 7.4043V7.20605C35.2959 6.68197 35.3665 6.19434 35.5078 5.74316C35.6491 5.28743 35.861 4.89095 36.1436 4.55371C36.4261 4.21191 36.7793 3.94531 37.2031 3.75391C37.627 3.5625 38.1237 3.4668 38.6934 3.4668C39.2995 3.4668 39.8304 3.58301 40.2861 3.81543C40.7464 4.04785 41.1064 4.38053 41.3662 4.81348C41.6305 5.24186 41.765 5.75 41.7695 6.33789H39.917C39.9124 6.0918 39.86 5.86849 39.7598 5.66797C39.6641 5.46745 39.5228 5.30794 39.3359 5.18945C39.1536 5.06641 38.9281 5.00488 38.6592 5.00488C38.3721 5.00488 38.1374 5.06641 37.9551 5.18945C37.7728 5.30794 37.6315 5.47201 37.5312 5.68164C37.431 5.88672 37.3604 6.12142 37.3193 6.38574C37.2829 6.64551 37.2646 6.91895 37.2646 7.20605V7.4043C37.2646 7.69141 37.2829 7.96712 37.3193 8.23145C37.3558 8.49577 37.4242 8.73047 37.5244 8.93555C37.6292 9.14062 37.7728 9.30241 37.9551 9.4209C38.1374 9.53939 38.3743 9.59863 38.666 9.59863ZM42.5967 7.37695V7.2334C42.5967 6.69108 42.6742 6.19206 42.8291 5.73633C42.984 5.27604 43.2096 4.87728 43.5059 4.54004C43.8021 4.2028 44.1667 3.94076 44.5996 3.75391C45.0326 3.5625 45.5293 3.4668 46.0898 3.4668C46.6504 3.4668 47.1494 3.5625 47.5869 3.75391C48.0244 3.94076 48.3913 4.2028 48.6875 4.54004C48.9883 4.87728 49.2161 5.27604 49.3711 5.73633C49.526 6.19206 49.6035 6.69108 49.6035 7.2334V7.37695C49.6035 7.91471 49.526 8.41374 49.3711 8.87402C49.2161 9.32975 48.9883 9.72852 48.6875 10.0703C48.3913 10.4076 48.0267 10.6696 47.5938 10.8564C47.1608 11.0433 46.6641 11.1367 46.1035 11.1367C45.543 11.1367 45.0439 11.0433 44.6064 10.8564C44.1735 10.6696 43.8066 10.4076 43.5059 10.0703C43.2096 9.72852 42.984 9.32975 42.8291 8.87402C42.6742 8.41374 42.5967 7.91471 42.5967 7.37695ZM44.5654 7.2334V7.37695C44.5654 7.68685 44.5928 7.97624 44.6475 8.24512C44.7021 8.514 44.7887 8.75098 44.9072 8.95605C45.0303 9.15658 45.1898 9.3138 45.3857 9.42773C45.5817 9.54167 45.821 9.59863 46.1035 9.59863C46.377 9.59863 46.6117 9.54167 46.8076 9.42773C47.0036 9.3138 47.1608 9.15658 47.2793 8.95605C47.3978 8.75098 47.4844 8.514 47.5391 8.24512C47.5983 7.97624 47.6279 7.68685 47.6279 7.37695V7.2334C47.6279 6.93262 47.5983 6.65007 47.5391 6.38574C47.4844 6.11686 47.3955 5.87988 47.2725 5.6748C47.154 5.46517 46.9967 5.30111 46.8008 5.18262C46.6048 5.06413 46.3678 5.00488 46.0898 5.00488C45.8118 5.00488 45.5749 5.06413 45.3789 5.18262C45.1875 5.30111 45.0303 5.46517 44.9072 5.6748C44.7887 5.87988 44.7021 6.11686 44.6475 6.38574C44.5928 6.65007 44.5654 6.93262 44.5654 7.2334ZM55.1816 9.38672V0.5H57.1641V11H55.3799L55.1816 9.38672ZM50.5059 7.39062V7.24707C50.5059 6.68197 50.5697 6.16927 50.6973 5.70898C50.8249 5.24414 51.0117 4.84538 51.2578 4.5127C51.5039 4.18001 51.807 3.92253 52.167 3.74023C52.527 3.55794 52.9372 3.4668 53.3975 3.4668C53.8304 3.4668 54.2087 3.55794 54.5322 3.74023C54.8604 3.92253 55.1383 4.18229 55.3662 4.51953C55.5986 4.85221 55.7855 5.24642 55.9268 5.70215C56.068 6.15332 56.1706 6.64779 56.2344 7.18555V7.5C56.1706 8.01497 56.068 8.49349 55.9268 8.93555C55.7855 9.3776 55.5986 9.76497 55.3662 10.0977C55.1383 10.4258 54.8604 10.681 54.5322 10.8633C54.2041 11.0456 53.8213 11.1367 53.3838 11.1367C52.9235 11.1367 52.5133 11.0433 52.1533 10.8564C51.7979 10.6696 51.4971 10.4076 51.251 10.0703C51.0094 9.73307 50.8249 9.33659 50.6973 8.88086C50.5697 8.42513 50.5059 7.92839 50.5059 7.39062ZM52.4746 7.24707V7.39062C52.4746 7.69596 52.4974 7.98079 52.543 8.24512C52.5931 8.50944 52.6729 8.74414 52.7822 8.94922C52.8962 9.14974 53.042 9.30697 53.2197 9.4209C53.402 9.53027 53.623 9.58496 53.8828 9.58496C54.2201 9.58496 54.498 9.50977 54.7168 9.35938C54.9355 9.20443 55.1019 8.99251 55.2158 8.72363C55.3343 8.45475 55.4027 8.14486 55.4209 7.79395V6.89844C55.4072 6.61133 55.3662 6.35384 55.2979 6.12598C55.234 5.89355 55.1383 5.69531 55.0107 5.53125C54.8877 5.36719 54.7327 5.23958 54.5459 5.14844C54.3636 5.05729 54.1471 5.01172 53.8965 5.01172C53.6413 5.01172 53.4225 5.07096 53.2402 5.18945C53.0579 5.30339 52.9098 5.46061 52.7959 5.66113C52.6865 5.86165 52.6045 6.09863 52.5498 6.37207C52.4997 6.64095 52.4746 6.93262 52.4746 7.24707ZM60.7803 3.60352V11H58.8047V3.60352H60.7803ZM58.6816 1.67578C58.6816 1.38867 58.7819 1.15169 58.9824 0.964844C59.1829 0.777995 59.4518 0.68457 59.7891 0.68457C60.1217 0.68457 60.3883 0.777995 60.5889 0.964844C60.7939 1.15169 60.8965 1.38867 60.8965 1.67578C60.8965 1.96289 60.7939 2.19987 60.5889 2.38672C60.3883 2.57357 60.1217 2.66699 59.7891 2.66699C59.4518 2.66699 59.1829 2.57357 58.9824 2.38672C58.7819 2.19987 58.6816 1.96289 58.6816 1.67578ZM64.335 5.18262V11H62.3662V3.60352H64.2119L64.335 5.18262ZM64.0479 7.04199H63.5146C63.5146 6.49512 63.5853 6.00293 63.7266 5.56543C63.8678 5.12337 64.0661 4.7474 64.3213 4.4375C64.5765 4.12305 64.8796 3.88379 65.2305 3.71973C65.5859 3.55111 65.9824 3.4668 66.4199 3.4668C66.7663 3.4668 67.083 3.51693 67.3701 3.61719C67.6572 3.71745 67.9033 3.87695 68.1084 4.0957C68.318 4.31445 68.4775 4.60384 68.5869 4.96387C68.7008 5.32389 68.7578 5.76367 68.7578 6.2832V11H66.7754V6.27637C66.7754 5.94824 66.7298 5.69303 66.6387 5.51074C66.5475 5.32845 66.4131 5.20085 66.2354 5.12793C66.0622 5.05046 65.848 5.01172 65.5928 5.01172C65.3285 5.01172 65.0983 5.06413 64.9023 5.16895C64.7109 5.27376 64.5514 5.4196 64.4238 5.60645C64.3008 5.78874 64.2074 6.00293 64.1436 6.24902C64.0798 6.49512 64.0479 6.75944 64.0479 7.04199ZM74.9375 3.60352H76.7217V10.7539C76.7217 11.4284 76.5713 12.0003 76.2705 12.4697C75.9743 12.9437 75.5596 13.3014 75.0264 13.543C74.4932 13.7891 73.8734 13.9121 73.167 13.9121C72.8571 13.9121 72.529 13.8711 72.1826 13.7891C71.8408 13.707 71.5127 13.5794 71.1982 13.4062C70.8883 13.2331 70.6286 13.0143 70.4189 12.75L71.2871 11.5879C71.515 11.8522 71.7793 12.0573 72.0801 12.2031C72.3809 12.3535 72.7135 12.4287 73.0781 12.4287C73.4336 12.4287 73.7344 12.3626 73.9805 12.2305C74.2266 12.1029 74.4157 11.9137 74.5479 11.6631C74.68 11.417 74.7461 11.1185 74.7461 10.7676V5.3125L74.9375 3.60352ZM69.9609 7.39062V7.24707C69.9609 6.68197 70.0293 6.16927 70.166 5.70898C70.3073 5.24414 70.5055 4.84538 70.7607 4.5127C71.0205 4.18001 71.335 3.92253 71.7041 3.74023C72.0732 3.55794 72.4902 3.4668 72.9551 3.4668C73.4473 3.4668 73.8597 3.55794 74.1924 3.74023C74.5251 3.92253 74.7985 4.18229 75.0127 4.51953C75.2269 4.85221 75.3932 5.24642 75.5117 5.70215C75.6348 6.15332 75.7305 6.64779 75.7988 7.18555V7.5C75.7305 8.01497 75.6279 8.49349 75.4912 8.93555C75.3545 9.3776 75.1745 9.76497 74.9512 10.0977C74.7279 10.4258 74.4499 10.681 74.1172 10.8633C73.7891 11.0456 73.3971 11.1367 72.9414 11.1367C72.4857 11.1367 72.0732 11.0433 71.7041 10.8564C71.3395 10.6696 71.0273 10.4076 70.7676 10.0703C70.5078 9.73307 70.3073 9.33659 70.166 8.88086C70.0293 8.42513 69.9609 7.92839 69.9609 7.39062ZM71.9297 7.24707V7.39062C71.9297 7.69596 71.9593 7.98079 72.0186 8.24512C72.0778 8.50944 72.1689 8.74414 72.292 8.94922C72.4196 9.14974 72.5768 9.30697 72.7637 9.4209C72.9551 9.53027 73.1807 9.58496 73.4404 9.58496C73.8005 9.58496 74.0944 9.50977 74.3223 9.35938C74.5501 9.20443 74.721 8.99251 74.835 8.72363C74.9489 8.45475 75.015 8.14486 75.0332 7.79395V6.89844C75.0241 6.61133 74.9854 6.35384 74.917 6.12598C74.8486 5.89355 74.7529 5.69531 74.6299 5.53125C74.5068 5.36719 74.3473 5.23958 74.1514 5.14844C73.9554 5.05729 73.723 5.01172 73.4541 5.01172C73.1943 5.01172 72.9688 5.07096 72.7773 5.18945C72.5905 5.30339 72.4333 5.46061 72.3057 5.66113C72.1826 5.86165 72.0892 6.09863 72.0254 6.37207C71.9616 6.64095 71.9297 6.93262 71.9297 7.24707ZM87.0439 8.39551C87.0439 8.21777 87.0166 8.05827 86.9619 7.91699C86.9118 7.77116 86.8161 7.639 86.6748 7.52051C86.5335 7.39746 86.3353 7.27669 86.0801 7.1582C85.8249 7.03971 85.4945 6.91667 85.0889 6.78906C84.6377 6.64323 84.2093 6.47917 83.8037 6.29688C83.4027 6.11458 83.0472 5.90267 82.7373 5.66113C82.432 5.41504 82.1904 5.13021 82.0127 4.80664C81.8395 4.48307 81.7529 4.1071 81.7529 3.67871C81.7529 3.264 81.8441 2.88802 82.0264 2.55078C82.2087 2.20898 82.4639 1.91732 82.792 1.67578C83.1201 1.42969 83.5075 1.24056 83.9541 1.1084C84.4053 0.976237 84.8997 0.910156 85.4375 0.910156C86.1712 0.910156 86.8115 1.04232 87.3584 1.30664C87.9053 1.57096 88.3291 1.93327 88.6299 2.39355C88.9352 2.85384 89.0879 3.38021 89.0879 3.97266H87.0508C87.0508 3.68099 86.9893 3.42578 86.8662 3.20703C86.7477 2.98372 86.5654 2.80827 86.3193 2.68066C86.0778 2.55306 85.7725 2.48926 85.4033 2.48926C85.0479 2.48926 84.7516 2.54395 84.5146 2.65332C84.2777 2.75814 84.0999 2.90169 83.9814 3.08398C83.863 3.26172 83.8037 3.46224 83.8037 3.68555C83.8037 3.85417 83.8447 4.00684 83.9268 4.14355C84.0133 4.28027 84.141 4.40788 84.3096 4.52637C84.4782 4.64486 84.6855 4.75651 84.9316 4.86133C85.1777 4.96615 85.4626 5.06868 85.7861 5.16895C86.3285 5.33301 86.8047 5.51758 87.2148 5.72266C87.6296 5.92773 87.9759 6.15788 88.2539 6.41309C88.5319 6.66829 88.7415 6.95768 88.8828 7.28125C89.0241 7.60482 89.0947 7.97168 89.0947 8.38184C89.0947 8.81478 89.0104 9.20215 88.8418 9.54395C88.6732 9.88574 88.4294 10.1751 88.1104 10.4121C87.7913 10.6491 87.4108 10.8291 86.9688 10.9521C86.5267 11.0752 86.0322 11.1367 85.4854 11.1367C84.9932 11.1367 84.5078 11.0729 84.0293 10.9453C83.5508 10.8132 83.1156 10.6149 82.7236 10.3506C82.3363 10.0863 82.0264 9.74902 81.7939 9.33887C81.5615 8.92871 81.4453 8.44336 81.4453 7.88281H83.5029C83.5029 8.19271 83.5508 8.45475 83.6465 8.66895C83.7422 8.88314 83.8766 9.05632 84.0498 9.18848C84.2275 9.32064 84.4372 9.41634 84.6787 9.47559C84.9248 9.53483 85.1937 9.56445 85.4854 9.56445C85.8408 9.56445 86.1325 9.51432 86.3604 9.41406C86.5928 9.3138 86.7637 9.1748 86.873 8.99707C86.987 8.81934 87.0439 8.61882 87.0439 8.39551ZM93.9893 3.60352V4.99805H89.6826V3.60352H93.9893ZM90.749 1.77832H92.7178V8.77148C92.7178 8.98568 92.7451 9.14974 92.7998 9.26367C92.859 9.3776 92.9456 9.45736 93.0596 9.50293C93.1735 9.54395 93.3171 9.56445 93.4902 9.56445C93.6133 9.56445 93.7227 9.5599 93.8184 9.55078C93.9186 9.53711 94.0029 9.52344 94.0713 9.50977L94.0781 10.959C93.9095 11.0137 93.7272 11.057 93.5312 11.0889C93.3353 11.1208 93.1188 11.1367 92.8818 11.1367C92.4489 11.1367 92.0706 11.0661 91.7471 10.9248C91.4281 10.779 91.182 10.5465 91.0088 10.2275C90.8356 9.90853 90.749 9.48926 90.749 8.96973V1.77832ZM94.6182 7.37695V7.2334C94.6182 6.69108 94.6956 6.19206 94.8506 5.73633C95.0055 5.27604 95.2311 4.87728 95.5273 4.54004C95.8236 4.2028 96.1882 3.94076 96.6211 3.75391C97.054 3.5625 97.5508 3.4668 98.1113 3.4668C98.6719 3.4668 99.1709 3.5625 99.6084 3.75391C100.046 3.94076 100.413 4.2028 100.709 4.54004C101.01 4.87728 101.238 5.27604 101.393 5.73633C101.548 6.19206 101.625 6.69108 101.625 7.2334V7.37695C101.625 7.91471 101.548 8.41374 101.393 8.87402C101.238 9.32975 101.01 9.72852 100.709 10.0703C100.413 10.4076 100.048 10.6696 99.6152 10.8564C99.1823 11.0433 98.6855 11.1367 98.125 11.1367C97.5645 11.1367 97.0654 11.0433 96.6279 10.8564C96.195 10.6696 95.8281 10.4076 95.5273 10.0703C95.2311 9.72852 95.0055 9.32975 94.8506 8.87402C94.6956 8.41374 94.6182 7.91471 94.6182 7.37695ZM96.5869 7.2334V7.37695C96.5869 7.68685 96.6143 7.97624 96.6689 8.24512C96.7236 8.514 96.8102 8.75098 96.9287 8.95605C97.0518 9.15658 97.2113 9.3138 97.4072 9.42773C97.6032 9.54167 97.8424 9.59863 98.125 9.59863C98.3984 9.59863 98.6331 9.54167 98.8291 9.42773C99.0251 9.3138 99.1823 9.15658 99.3008 8.95605C99.4193 8.75098 99.5059 8.514 99.5605 8.24512C99.6198 7.97624 99.6494 7.68685 99.6494 7.37695V7.2334C99.6494 6.93262 99.6198 6.65007 99.5605 6.38574C99.5059 6.11686 99.417 5.87988 99.2939 5.6748C99.1755 5.46517 99.0182 5.30111 98.8223 5.18262C98.6263 5.06413 98.3893 5.00488 98.1113 5.00488C97.8333 5.00488 97.5964 5.06413 97.4004 5.18262C97.209 5.30111 97.0518 5.46517 96.9287 5.6748C96.8102 5.87988 96.7236 6.11686 96.6689 6.38574C96.6143 6.65007 96.5869 6.93262 96.5869 7.2334ZM104.804 5.2168V11H102.835V3.60352H104.688L104.804 5.2168ZM107.032 3.55566L106.998 5.38086C106.902 5.36719 106.786 5.35579 106.649 5.34668C106.517 5.33301 106.396 5.32617 106.287 5.32617C106.009 5.32617 105.768 5.36263 105.562 5.43555C105.362 5.50391 105.193 5.60645 105.057 5.74316C104.924 5.87988 104.824 6.04622 104.756 6.24219C104.692 6.43815 104.656 6.66146 104.646 6.91211L104.25 6.78906C104.25 6.31055 104.298 5.87077 104.394 5.46973C104.489 5.06413 104.628 4.71094 104.811 4.41016C104.997 4.10938 105.225 3.87695 105.494 3.71289C105.763 3.54883 106.071 3.4668 106.417 3.4668C106.526 3.4668 106.638 3.47591 106.752 3.49414C106.866 3.50781 106.959 3.52832 107.032 3.55566ZM111.229 11.1367C110.655 11.1367 110.14 11.0456 109.685 10.8633C109.229 10.6764 108.841 10.4189 108.522 10.0908C108.208 9.7627 107.966 9.38216 107.798 8.94922C107.629 8.51172 107.545 8.04688 107.545 7.55469V7.28125C107.545 6.7207 107.625 6.20801 107.784 5.74316C107.944 5.27832 108.172 4.875 108.468 4.5332C108.769 4.19141 109.133 3.92936 109.562 3.74707C109.99 3.56022 110.473 3.4668 111.011 3.4668C111.535 3.4668 112 3.55339 112.405 3.72656C112.811 3.89974 113.15 4.14583 113.424 4.46484C113.702 4.78385 113.911 5.16667 114.053 5.61328C114.194 6.05534 114.265 6.54753 114.265 7.08984V7.91016H108.386V6.59766H112.33V6.44727C112.33 6.17383 112.28 5.93001 112.18 5.71582C112.084 5.49707 111.938 5.32389 111.742 5.19629C111.546 5.06868 111.296 5.00488 110.99 5.00488C110.73 5.00488 110.507 5.06185 110.32 5.17578C110.133 5.28971 109.981 5.44922 109.862 5.6543C109.748 5.85938 109.662 6.10091 109.603 6.37891C109.548 6.65234 109.521 6.95312 109.521 7.28125V7.55469C109.521 7.85091 109.562 8.12435 109.644 8.375C109.73 8.62565 109.851 8.84212 110.006 9.02441C110.165 9.20671 110.357 9.34798 110.58 9.44824C110.808 9.5485 111.065 9.59863 111.353 9.59863C111.708 9.59863 112.038 9.53027 112.344 9.39355C112.654 9.25228 112.92 9.04036 113.144 8.75781L114.101 9.79688C113.946 10.0202 113.734 10.2344 113.465 10.4395C113.201 10.6445 112.882 10.8132 112.508 10.9453C112.134 11.0729 111.708 11.1367 111.229 11.1367Z" fill="white"/>
</svg>
